<svg xmlns="http://www.w3.org/2000/svg" width="342.71033" height="159.70108" viewBox="0 0 342.71032 159.70108">
	<defs>
		<clipPath id="a">
			<path d="M0 595.28h841.89V0H0z"/>
		</clipPath>
		<style type="text/css">
			<![CDATA[
				@font-face {
					font-family: "Franklin Gothic Heavy";
					src: 	url('../fonts/Franklin-Gothic-Heavy-Italic/Franklin-Gothic-Heavy-Italic.ttf') format('ttf'),
							url('../fonts/Franklin-Gothic-Heavy-Italic/Franklin-Gothic-Heavy-Italic.woff') format('woff'),
							url('../fonts/Franklin-Gothic-Heavy-Italic/Franklin-Gothic-Heavy-Italic.eot') format('eot');
				}
			]]>
		</style>
	</defs>
	<g clip-path="url(#a)" transform="matrix(1.33333 0 0 -1.33333 -398.12105675 533.89638313)">
		<path fill="#127bbf" d="M356.7617 308.5063c-18.158 0-32.879 14.721-32.879 32.88 0 18.158 14.721 32.879 32.879 32.879 18.16 0 32.881-14.721 32.881-32.879 0-18.159-14.721-32.88-32.881-32.88m-.046 71.666c-21.401 0-38.75-17.349-38.75-38.75 0-21.4 17.349-38.75 38.75-38.75s38.75 17.35 38.75 38.75c0 21.401-17.349 38.75-38.75 38.75M408.9658 342.1733c0-2.037-.129-4.043-.355-6.019l5.895-.078c.217 2.045.335 4.119.335 6.221 0 16.816-7.149 31.956-18.565 42.569l-3.289-5.104c9.845-9.502 15.979-22.825 15.979-37.589"/>
		<path fill="#127bbf" d="M304.4658 342.1733c0 28.854 23.394 52.248 52.25 52.248v6.001c-32.102 0-58.125-26.023-58.125-58.125 0-3.323.294-6.577.83-9.748l5.731 1.199c-.446 2.744-.686 5.556-.686 8.425M356.7158 289.9229c-13.897 0-26.518 5.438-35.877 14.286l-4.364-3.83c10.444-10.03 24.617-16.206 40.241-16.206 11.694 0 22.573 3.465 31.689 9.408l-3.092 4.871c-8.218-5.386-18.038-8.529-28.597-8.529"/>
		<path fill="#127bbf" d="M314.9189 339.396l-5.557-.395c.755-13.029 6.781-24.637 15.976-32.738l3.632 3.799c-8.175 7.268-13.493 17.674-14.051 29.334M356.8408 383.4067c23.182 0 41.975-18.792 41.975-41.972 0-.764-.024-1.522-.064-2.277l5.067-.529c.069 1.043.116 2.09.116 3.151 0 26.142-21.188 47.331-47.33 47.331-13.537 0-25.739-5.692-34.366-14.805l5.043-3.077c7.586 7.526 18.029 12.178 29.559 12.178"/>
		<path fill="#127bbf" d="M361.2412 359.9238c-.93.56-1.869 1.357-2.912 1.676-.276.084-.475-.067-.563-.272 0 0-.002 0-.002-.001-1.23-1.832-1.57-4.704-.925-6.8.082-.261.326-.387.574-.344.139-.029 3.449.748 3.408 1.226-.117 1.383.174 2.658.65 3.951.077.21-.05.456-.23.564M358.8838 350.2021c3.063-3.438 6.521-5.126 11.104-4.813.566.039.591.639.566.799-.135.805-.084 1.437-.211 2.243.006.167-.221.845-.605.895-2.504.32-5.637 1.353-7.432 3.248-.359.273-.385.576-.736.371-.944-.546-1.735-1.305-2.647-1.895-.256-.165-.273-.444-.168-.657.004-.009.006-.019.012-.029M362.9873 343.8887c-2.227 1.125-4.145 1.652-5.969 3.531-2.232 2.303-3.424 3.958-4.031 7.563-.006.036-.195.968-.203 1-.031.484-.36.802-.627.792-1.037-.042-1.514-.198-2.904-.369-.311-.038-.594-.236-.705-.71-.004-.028-.04-.34-.041-.369-.12-3.525 2.353-7.732 4.437-10.125 2.793-3.209 7.586-5.608 9.152-5.608.375 0 .912 1.222 1.204 1.998.218.578.623 1.824-.313 2.297M342.5908 368.3369c-.127.062-4.604-2.803-7.27-7.262-1.097-1.836-2.007-4.139-2.5-6.208-.222-.937-.636-3.438-.179-4.068.135-.189 2.097.15 2.472.443.53.414-.293 3.542 1.332 8.303 1.565 4.583 5.579 7.601 6.334 8.081.479.305.272.788-.189.711M377.79 347.4863c-2.293-3.18-4.537-4.4-8.002-4.472-1.092-.022-1.162-4.245-.424-4.189 5.424.409 8.485 2.384 10.83 5.976 1.053 1.615-1.633 3.756-2.404 2.685"/>
		<path fill="#127bbf" d="M384.1553 353.7012c-.346 1.747-1.303 1.524-1.125.25 1.416-10.208-2.418-14.583-5.5-16.127-3.488-1.746-4.209-1.774-6.543-2.178-.912-.158-.869-4.475.209-4.577 3.461-.326 8.754 2.439 11.186 6.574 3.148 5.358 3.064 9.541 1.773 16.058M358.9463 329.3838c-4.4 1.659-7.041 3.192-10.641 6.3-2.375 2.05-5.843 6.757-5.855 6.77-.195.368-.58.637-1.102.519-.781-.177-2.777-1.314-2.175-2.401 1.572-2.841 4.072-5.648 4.859-6.385 4.471-4.778 9.685-7.476 12.133-8.452 2.226-.888 3.488 3.316 2.781 3.649"/>
		<path fill="#127bbf" d="M387.7373 342.5264c.119 1.821-.811 2.192-1.041.925-.662-3.634-.5-3.875-2.25-7.542-2.293-4.125-4.375-5.125-5.975-6.12-3.634-2.264-6.82-2.687-11.306-2.547-1.344.042-1.471-3.917-.094-3.917 6.75-.001 12.424 2.013 16.207 6.744 2.75 3.43 4.125 7.299 4.459 12.457M353.5361 340.4502c-5.576 4.171-10.232 13.778-6.893 21.328.678 1.532-1.779 2.661-2.56 1.344-2.567-4.335-2.492-9.512-1.229-14.265 1.022-3.845 4.846-9.038 7.922-11.52 1.254-1.012 3.615 2.472 2.76 3.113"/>
		<path fill="#127bbf" d="M375.1943 319.6797c-2.685-.838-4.338-1.185-9.03-1.387-7.802-.335-15.836 3.58-19.901 6.301-3.787 2.534-7.022 6.385-10.496 11.898-.88 1.394-3.65.015-2.801-1.986 1.331-2.77 2.883-5.153 7.489-9.826 5.115-5.188 11.055-7.537 15.598-8.829 11.415-2.589 19.674-.167 20.722 1.732.726 1.718-.151 2.543-1.581 2.097M333.9463 362.2002c-2.387-3.018-4.041-6.166-4.834-9.957-.754-3.608-.637-8.626.752-12.043.18-.441 1.928-.416 2.572.293.387.96-1.23 4.098-1.365 8.666-.199 6.765 2.836 10.906 3.959 12.916.629 1.127.301 1.876-1.084.125M332.6963 329.5986c-1.574 2.704-3.205 4.913-4.184 10.504-.435 2.501-1.377 3.919-1.461 1.818-.222-5.431 1.106-8.734 2.84-12.371 1.655-3.474 6.493-9.062 8.127-9.679.994-.376 2.032.843 2.043 1.124.018.384-5.562 5.506-7.365 8.604"/>
	</g>
	<text fill="#41525d" font-family="Franklin Gothic Heavy" font-size="80" font-style="italic" font-weight="400" style="-inkscape-font-specification:FranklinGothic-HeavyItalic" transform="matrix(1.33333 0 0 1.33333 126.00199681 140.20105963)">
		<tspan x="0 40.080002 108" y="0">TMS</tspan>
	</text>
	<text fill="#127bbf" font-family="Franklin Gothic Heavy" font-size="14" font-style="italic" font-weight="400" style="-inkscape-font-specification:FranklinGothic-HeavyItalic" transform="matrix(1.33333 0 0 1.33333 137.76626318 159.41852582)">
		<tspan x="0 7.0700002 19.403999 29.218 40.040001 52.136002 64.358002 75.306 85.120003 92.190002 104.608 116.83 128.45" y="0">INTERNATIONAL</tspan>
	</text>
</svg>
